<?xml version="1.0" encoding="UTF-8" standalone="no"?>
<!DOCTYPE svg PUBLIC "-//W3C//DTD SVG 1.1//EN" "http://www.w3.org/Graphics/SVG/1.1/DTD/svg11.dtd">
<svg width="100%" height="100%" viewBox="0 0 486 105" version="1.1" xmlns="http://www.w3.org/2000/svg" xmlns:xlink="http://www.w3.org/1999/xlink" xml:space="preserve" xmlns:serif="http://www.serif.com/" style="fill-rule:evenodd;clip-rule:evenodd;stroke-linejoin:round;stroke-miterlimit:2;">
    <g transform="matrix(1,0,0,1,-7.10543e-15,-244)">
        <g id="Artboard1" transform="matrix(1.27082,0,0,1,7.10543e-15,244)">
            <rect x="0" y="0" width="382.43" height="104.63" style="fill:none;"/>
            <g id="Layer_1" transform="matrix(0.786893,0,0,1,0,0)">
                <path d="M140.76,52.2L134.32,52.2L134.32,76.2L125.32,76.2L125.32,52.2L120.67,52.2L120.67,44.49L125.32,44.49L125.32,41.49C125.32,33.72 130.17,29.73 137.55,29.73C138.691,29.741 139.828,29.875 140.94,30.13L140.94,39.13C139.966,38.745 138.928,38.545 137.88,38.54C137.797,38.534 137.714,38.53 137.63,38.53C135.831,38.53 134.35,40.011 134.35,41.81C134.35,41.894 134.354,41.977 134.36,42.06L134.36,44.45L140.8,44.45L140.76,52.2ZM154.32,76.2L145.22,76.2L145.22,30.4L154.32,30.4L154.32,76.2Z" style="fill-rule:nonzero;"/>
                <path d="M174.52,42.5C174.53,42.5 174.54,42.5 174.55,42.5C184.008,42.5 191.79,50.282 191.79,59.74C191.79,69.198 184.008,76.98 174.55,76.98C165.092,76.98 157.31,69.198 157.31,59.74C157.31,59.73 157.31,59.72 157.31,59.71C157.309,59.64 157.309,59.569 157.309,59.499C157.309,50.173 164.983,42.499 174.309,42.499C174.379,42.499 174.45,42.499 174.52,42.5ZM174.52,68.14C179.17,68.14 182.52,64.29 182.52,59.71C182.52,55.13 179.2,51.33 174.52,51.33C170.018,51.485 166.4,55.231 166.4,59.735C166.4,64.239 170.018,67.985 174.52,68.14Z" style="fill-rule:nonzero;"/>
                <path d="M201.23,43.16L207.07,65.16L212.92,47.69L211.33,43.17L220.33,43.17L228.04,65.17L233.76,43.17L243.12,43.17L233.29,76.26L223.86,76.26L217.28,58.12L211.17,76.26L201.67,76.26L191.9,43.17L201.23,43.16Z" style="fill-rule:nonzero;"/>
                <circle cx="53.08" cy="52.32" r="50" style="fill:rgb(0,239,139);"/>
                <rect x="60.91" y="44.49" width="14.12" height="14.12" style="fill:white;"/>
                <path d="M46.79,63.9C46.79,63.903 46.79,63.907 46.79,63.91C46.79,66.817 44.398,69.21 41.49,69.21C38.583,69.21 36.19,66.817 36.19,63.91C36.19,61.002 38.583,58.61 41.49,58.61C41.493,58.61 41.497,58.61 41.5,58.61L46.79,58.61L46.79,44.49L41.5,44.49C41.497,44.49 41.493,44.49 41.49,44.49C30.837,44.49 22.07,53.257 22.07,63.91C22.07,74.563 30.837,83.33 41.49,83.33C52.143,83.33 60.91,74.563 60.91,63.91C60.91,63.907 60.91,63.903 60.91,63.9L60.91,58.61L46.79,58.61L46.79,63.9Z" style="fill:white;fill-rule:nonzero;"/>
                <path d="M66.2,37.43L82.08,37.43L82.08,23.32L66.2,23.32C55.556,23.331 46.801,32.086 46.79,42.73L46.79,44.49L60.91,44.49L60.91,42.73C60.915,39.828 63.298,37.441 66.2,37.43Z" style="fill:white;fill-rule:nonzero;"/>
                <rect x="46.79" y="44.49" width="14.12" height="14.12" style="fill:rgb(22,255,153);fill-rule:nonzero;"/>
                <g transform="matrix(0.810949,0,0,0.828552,19.6798,-77.6726)">
                    <g transform="matrix(78.7292,0,0,78.7292,279,185)">
                        <path d="M0.45,-0L0.095,-0L0.095,-0.68L0.45,-0.68L0.45,-0.626L0.153,-0.626L0.153,-0.369L0.43,-0.369L0.43,-0.315L0.153,-0.315L0.153,-0.054L0.45,-0.054L0.45,-0Z" style="fill-rule:nonzero;"/>
                    </g>
                    <g transform="matrix(78.7292,0,0,78.7292,318.758,185)">
                        <path d="M0.132,-0.481L0.132,-0.41C0.159,-0.464 0.205,-0.491 0.27,-0.491C0.307,-0.491 0.34,-0.482 0.369,-0.463C0.397,-0.444 0.417,-0.418 0.429,-0.385C0.44,-0.419 0.459,-0.445 0.485,-0.464C0.51,-0.482 0.542,-0.491 0.579,-0.491C0.629,-0.491 0.67,-0.475 0.703,-0.443C0.735,-0.41 0.751,-0.366 0.751,-0.31L0.751,-0L0.694,-0L0.694,-0.299C0.694,-0.342 0.683,-0.376 0.66,-0.4C0.636,-0.423 0.606,-0.435 0.568,-0.435C0.531,-0.435 0.5,-0.423 0.477,-0.399C0.453,-0.375 0.441,-0.342 0.441,-0.299L0.441,-0L0.384,-0L0.384,-0.299C0.384,-0.342 0.373,-0.376 0.35,-0.4C0.327,-0.423 0.296,-0.435 0.259,-0.435C0.222,-0.435 0.191,-0.424 0.168,-0.402C0.145,-0.379 0.133,-0.347 0.132,-0.306L0.132,-0L0.075,-0L0.075,-0.481L0.132,-0.481Z" style="fill-rule:nonzero;"/>
                    </g>
                    <g transform="matrix(78.7292,0,0,78.7292,383.316,185)">
                        <path d="M0.41,-0L0.41,-0.083C0.381,-0.021 0.33,0.01 0.257,0.01C0.201,0.01 0.156,-0.008 0.122,-0.045C0.088,-0.081 0.071,-0.128 0.071,-0.186L0.071,-0.481L0.128,-0.481L0.128,-0.196C0.128,-0.151 0.14,-0.115 0.166,-0.088C0.191,-0.06 0.225,-0.046 0.269,-0.046C0.312,-0.046 0.345,-0.059 0.371,-0.085C0.396,-0.111 0.409,-0.146 0.41,-0.189L0.41,-0.481L0.467,-0.481L0.467,-0L0.41,-0Z" style="fill-rule:nonzero;"/>
                    </g>
                    <g transform="matrix(78.7292,0,0,78.7292,426.145,185)">
                        <rect x="0.077" y="-0.69" width="0.056" height="0.69" style="fill-rule:nonzero;"/>
                    </g>
                    <g transform="matrix(78.7292,0,0,78.7292,442.678,185)">
                        <path d="M0.086,-0.396L0.086,-0.455C0.129,-0.479 0.175,-0.491 0.223,-0.491C0.276,-0.491 0.318,-0.476 0.351,-0.448C0.384,-0.419 0.4,-0.374 0.4,-0.315L0.4,-0L0.343,-0L0.343,-0.061C0.33,-0.04 0.311,-0.023 0.287,-0.01C0.262,0.004 0.235,0.01 0.206,0.01C0.155,0.01 0.113,-0.005 0.081,-0.037C0.049,-0.068 0.033,-0.106 0.033,-0.152C0.033,-0.197 0.05,-0.236 0.083,-0.267C0.116,-0.298 0.158,-0.313 0.207,-0.313C0.235,-0.313 0.262,-0.306 0.287,-0.293C0.312,-0.28 0.33,-0.264 0.343,-0.245L0.343,-0.315C0.343,-0.356 0.331,-0.386 0.307,-0.407C0.282,-0.428 0.253,-0.438 0.219,-0.438C0.174,-0.438 0.129,-0.424 0.086,-0.396ZM0.091,-0.152C0.091,-0.12 0.103,-0.093 0.128,-0.071C0.153,-0.048 0.182,-0.037 0.216,-0.037C0.251,-0.037 0.281,-0.048 0.306,-0.071C0.331,-0.093 0.343,-0.12 0.343,-0.152C0.343,-0.183 0.33,-0.209 0.305,-0.232C0.28,-0.255 0.25,-0.266 0.216,-0.266C0.181,-0.266 0.152,-0.255 0.128,-0.233C0.103,-0.21 0.091,-0.183 0.091,-0.152Z" style="fill-rule:nonzero;"/>
                    </g>
                    <g transform="matrix(78.7292,0,0,78.7292,479.208,185)">
                        <path d="M0.171,-0L0.114,-0L0.114,-0.431L0.016,-0.431L0.016,-0.481L0.116,-0.481L0.116,-0.606L0.171,-0.622L0.171,-0.481L0.272,-0.481L0.272,-0.431L0.171,-0.431L0.171,-0Z" style="fill-rule:nonzero;"/>
                    </g>
                    <g transform="matrix(78.7292,0,0,78.7292,500.859,185)">
                        <path d="M0.114,-0.062C0.066,-0.111 0.042,-0.17 0.042,-0.241C0.042,-0.312 0.066,-0.371 0.114,-0.419C0.162,-0.467 0.221,-0.491 0.292,-0.491C0.363,-0.491 0.422,-0.467 0.47,-0.419C0.518,-0.371 0.542,-0.312 0.542,-0.241C0.542,-0.17 0.518,-0.11 0.47,-0.062C0.422,-0.014 0.363,0.01 0.292,0.01C0.221,0.01 0.162,-0.014 0.114,-0.062ZM0.101,-0.241C0.101,-0.186 0.119,-0.14 0.156,-0.103C0.193,-0.065 0.238,-0.046 0.292,-0.046C0.346,-0.046 0.392,-0.065 0.429,-0.103C0.466,-0.14 0.484,-0.186 0.484,-0.241C0.484,-0.295 0.466,-0.341 0.429,-0.379C0.392,-0.416 0.346,-0.435 0.292,-0.435C0.238,-0.435 0.193,-0.416 0.156,-0.379C0.119,-0.341 0.101,-0.295 0.101,-0.241Z" style="fill-rule:nonzero;"/>
                    </g>
                    <g transform="matrix(78.7292,0,0,78.7292,546.837,185)">
                        <path d="M0.132,-0.481L0.132,-0.409C0.157,-0.464 0.2,-0.491 0.261,-0.491C0.274,-0.491 0.289,-0.489 0.304,-0.486L0.304,-0.425C0.287,-0.432 0.27,-0.435 0.252,-0.435C0.213,-0.435 0.183,-0.422 0.164,-0.397C0.144,-0.371 0.133,-0.336 0.132,-0.291L0.132,-0L0.075,-0L0.075,-0.481L0.132,-0.481Z" style="fill-rule:nonzero;"/>
                    </g>
                </g>
            </g>
        </g>
    </g>
</svg>
